<svg xmlns="http://www.w3.org/2000/svg" xmlns:xlink="http://www.w3.org/1999/xlink" viewBox="0 0 2551 851.96"><defs><style>.cls-1{fill:none;}.cls-2{clip-path:url(#clip-path);}.cls-3{clip-path:url(#clip-path-2);}.cls-4{fill:#fff;}.cls-5,.cls-7{fill:#2bd6e4;}.cls-6{fill:#005354;}.cls-7{font-size:69.39px;font-family:PFDinTextCompPro-Regular, PF Din Text Comp Pro;}</style><clipPath id="clip-path" transform="translate(-1 71.32)"><rect class="cls-1" x="4.74" y="3.33" width="1547" height="515"/></clipPath><clipPath id="clip-path-2" transform="translate(-1 71.32)"><rect class="cls-1" width="1569" height="539"/></clipPath><image id="image" width="1181" height="787" xlink:href="../../../Downloads/home-cyber-lunes_Carpeta/home-cyber-lunes_Carpeta/Links/_S0A7057.jpg"/></defs><title>banner</title><g id="Capa_2" data-name="Capa 2"><g id="Capa_1-2" data-name="Capa 1"><g class="cls-2"><g class="cls-3"><use transform="translate(0 0) scale(1.08)" xlink:href="#image"/><use transform="matrix(-1.08, 0, 0, 1.08, 2551, 0.32)" xlink:href="#image"/></g><path class="cls-4" d="M998.38,283.29V297.8H985.5V283.29H972.05V270.22H985.5v-14.5h12.88v14.5h13.45v13.07Z" transform="translate(-1 71.32)"/><path class="cls-4" d="M1041.89,306.15c0-23.52-.07-47,.43-70.55a319.5,319.5,0,0,1,34.31,1.52c-.08,6.57-.13,9.85-.22,16.42-7-.11-10.53-.14-17.56-.17-.11,5.44,0,7.11,0,11.57h15.37v14.51H1058.8v12.2h17.58v14.5Z" transform="translate(-1 71.32)"/><path class="cls-4" d="M1120.58,286.07a35.07,35.07,0,0,1-1.06,8.72,18.23,18.23,0,0,1-3.41,7.18,13,13,0,0,1-6.2,4,27.18,27.18,0,0,1-9.32,1,22.51,22.51,0,0,1-8.55-1.79,17.17,17.17,0,0,1-5.86-4.26,16.41,16.41,0,0,1-3.36-6.1,24.38,24.38,0,0,1-1.06-7.21l16.53-1.44a14,14,0,0,0,.09,3,4.25,4.25,0,0,0,.58,1.65,2,2,0,0,0,.82.76,2.15,2.15,0,0,0,.91.19,2.11,2.11,0,0,0,2.11-1.33,9.74,9.74,0,0,0,.58-3.82,7.29,7.29,0,0,0-5.29-7.78,41.25,41.25,0,0,1-8.4-4.42,21.36,21.36,0,0,1-5-4.8,14.68,14.68,0,0,1-2.4-5.38,28.75,28.75,0,0,1-.62-6.15,27.92,27.92,0,0,1,1.19-8.17,14.66,14.66,0,0,1,3.55-6.11,11.41,11.41,0,0,1,5.91-3,26.2,26.2,0,0,1,8.51.08,34.42,34.42,0,0,1,8.87,2.21,18,18,0,0,1,5.79,3.75,14.51,14.51,0,0,1,3.29,5.06,13.92,13.92,0,0,1,1,5.39L1103.09,259a11.23,11.23,0,0,0-.35-4,2,2,0,0,0-2-1.16,1.81,1.81,0,0,0-1.9,1,7.35,7.35,0,0,0-.47,2.84,8.34,8.34,0,0,0,.2,1.83,4.31,4.31,0,0,0,.86,1.73,8.48,8.48,0,0,0,2,1.73,19.08,19.08,0,0,0,3.51,1.73,37.11,37.11,0,0,1,7.92,4.08,19,19,0,0,1,4.76,4.71,15.38,15.38,0,0,1,2.35,5.62A34.54,34.54,0,0,1,1120.58,286.07Z" transform="translate(-1 71.32)"/><path class="cls-4" d="M1146,241.4a39.19,39.19,0,0,1,7.45-.14,11.33,11.33,0,0,1,6.06,2.25,15.49,15.49,0,0,1,4.4,6.42,23.64,23.64,0,0,1,1.71,9.53q0,10.29-4.7,15.76t-14.1,5.47h-3.58v29.16c-6.58-.68-9.86-1-16.43-1.63,0-21.73,1.09-43.87-.77-65.54C1134,242.51,1138,242.22,1146,241.4Zm-2.84,12.49c.24,4.32.08,7.46.08,12.87h1.27A4,4,0,0,0,1148,265c.82-1.16,1.22-3.05,1.22-5.67a7,7,0,0,0-1-4.22,4.44,4.44,0,0,0-3.58-1.27Z" transform="translate(-1 71.32)"/><path class="cls-4" d="M1171.3,312.63c0-24.82.56-49.69-1.07-74.47,11.42-1.89,22.83-3.85,34.24-5.77.08,6.28,1,13.92,1.27,21.15-7.1.14-10.54.16-17.58.27.19,4.87,0,6.67,0,11.13h15.37v14.51h-15.37V292c7,0,10.55-.08,17.58,0v22.4C1194.21,314.1,1182.85,313.51,1171.3,312.63Z" transform="translate(-1 71.32)"/><path class="cls-4" d="M1228.94,313.45c-6.57.44-9.86.62-16.43.79,0-27.68.2-55.34-.65-83,8.74-1.29,13-1.83,21.31-2.67a18,18,0,0,1,8,.72,11,11,0,0,1,5.92,5.37c1.6,2.85,2.79,7.07,3.55,11.88a82.28,82.28,0,0,1,1,12.83,23.33,23.33,0,0,1-1.73,9.7,17.75,17.75,0,0,1-5.12,6.44c3.6,11.84,6.43,23.68,9.25,35.73-6.71.69-10.06,1-16.77,1.58-2-10.93-3.61-22.23-6.85-32.89h-1.45Zm.14-61.25c-.19,7.69-.14,8.53-.14,13.6h1a4.46,4.46,0,0,0,3.13-1.29c.91-.87,1.37-2.48,1.37-4.85a17.53,17.53,0,0,0-.73-4.85,3.24,3.24,0,0,0-3.33-2.63Z" transform="translate(-1 71.32)"/><path class="cls-4" d="M1286.1,294.29c-4.19.06-6.28.1-10.47.18-.65,5.8-1,9.72-1.63,14.71-6.81.69-10.21,1.06-17,1.76,4.29-28.28,10.39-56.15,14.4-84.49,8.25-.06,12.35,0,20.65.36,2.15,27.26,7.47,53.09,12.7,79.85-6.77.36-10.15.63-16.91,1.21C1287.14,303.16,1286.79,299.74,1286.1,294.29Zm-8.45-14h6.53L1283,272c-.73-5.22-1.1-7.84-1.83-13.06h-.58c-.73,5.26-1.09,7.89-1.82,13.16Z" transform="translate(-1 71.32)"/><path class="cls-4" d="M1332.24,230.16A17.34,17.34,0,0,1,1342,234c2.62,2.27,4.29,6.18,5,11.41a121.22,121.22,0,0,1,.87,12.51q.15,6.48.15,14.74t-.15,14.42a32.8,32.8,0,0,1-1.2,9.22,13.27,13.27,0,0,1-2.51,4.47,13.93,13.93,0,0,1-3.87,3.07,19,19,0,0,1-4.73,1.78,23.09,23.09,0,0,1-5.12.57c-8.3,0-12.45-.06-20.75.28,0-26.19,0-52.28,1-78.46C1319.5,228.7,1324,229.21,1332.24,230.16Zm-1.18,28.34a9.14,9.14,0,0,0-.79-4.17c-.51-1-1.69-1.65-3.58-1.67h-.57c-.1,13.15,0,26.31,0,39.47h.58q2.55,0,3.48-1.35a7.51,7.51,0,0,0,.93-4.22Z" transform="translate(-1 71.32)"/><path class="cls-4" d="M1393.6,288.67q0,8.83-5.06,13.45t-14.1,4.61q-9.26,0-14.21-4.61t-5-13.45v-32a36.21,36.21,0,0,1,1.42-9.94,23,23,0,0,1,4-8.3,10.86,10.86,0,0,1,5.91-3.64,23,23,0,0,1,7.73-.28c12.73,1.32,18.75,9.86,19.23,22.16Zm-16.91-32.38a2.5,2.5,0,0,0-.83-2.16,2.64,2.64,0,0,0-1.55-.59,3,3,0,0,0-1.62.58,2.41,2.41,0,0,0-.8,2.17v32.86c0,1.15.29,1.89.86,2.21a3.39,3.39,0,0,0,1.64.48,2.86,2.86,0,0,0,1.53-.48c.52-.32.77-1.06.77-2.21Z" transform="translate(-1 71.32)"/><path class="cls-4" d="M1438.66,286.07a31.51,31.51,0,0,1-1.06,8.51,16.24,16.24,0,0,1-3.41,6.48,15.35,15.35,0,0,1-6.2,4.18,25.85,25.85,0,0,1-9.31,1.49,21,21,0,0,1-8.55-1.58,16.23,16.23,0,0,1-9.23-10.33,24.71,24.71,0,0,1-1.05-7.21l16.52-1.44a14.53,14.53,0,0,0,.1,3,4.43,4.43,0,0,0,.57,1.68,2.1,2.1,0,0,0,.82.77,2.35,2.35,0,0,0,.91.19,2.12,2.12,0,0,0,2.12-1.35,10.14,10.14,0,0,0,.57-3.84,8.61,8.61,0,0,0-1.15-4.75,8.78,8.78,0,0,0-4.13-3,41.35,41.35,0,0,1-8.41-4.42,21.3,21.3,0,0,1-5-4.8,14.54,14.54,0,0,1-2.41-5.38,29.41,29.41,0,0,1-.62-6.15,28.4,28.4,0,0,1,1.08-8,18.73,18.73,0,0,1,3.59-7.05,13,13,0,0,1,6-3.91,25,25,0,0,1,8.75-.88,23.08,23.08,0,0,1,9.07,2,16.12,16.12,0,0,1,8.74,10.58,25.74,25.74,0,0,1,.87,6.57L1421.17,259a12.37,12.37,0,0,0-.34-4.08,1.9,1.9,0,0,0-2-1.31,1.86,1.86,0,0,0-1.91,1.22,8.1,8.1,0,0,0-.46,2.92,8.35,8.35,0,0,0,.19,1.83,4.59,4.59,0,0,0,.86,1.73,8.69,8.69,0,0,0,2,1.73,19.75,19.75,0,0,0,3.51,1.73,37,37,0,0,1,7.93,4.08,19,19,0,0,1,4.75,4.71,15.21,15.21,0,0,1,2.35,5.62A34.54,34.54,0,0,1,1438.66,286.07Z" transform="translate(-1 71.32)"/><path class="cls-5" d="M1039.94,210.19c2.33-11.32,4.57-22.65,6.91-34h4.05c-2.1,10.21-4.16,20.44-6.25,30.66a92.6,92.6,0,0,1,10.4,1.38c-.27,1.45-.4,2.16-.67,3.56A76.36,76.36,0,0,0,1039.94,210.19Z" transform="translate(-1 71.32)"/><path class="cls-5" d="M1073.21,176a9.6,9.6,0,0,1,3.42.53,5.9,5.9,0,0,1,2.31,1.52,6.1,6.1,0,0,1,1.34,2.38,10.67,10.67,0,0,1,.43,3.15,13.11,13.11,0,0,1-.07,1.44c-.05.45-.11,1-.18,1.52-1.39,8.63-2.09,13.67-3.48,22.24-.48,2.93-1.38,5-2.69,6.18s-3.21,1.39-5.66.7a15.31,15.31,0,0,1-3.8-1.56,9,9,0,0,1-2.46-2.08,7.64,7.64,0,0,1-1.33-2.54,10.51,10.51,0,0,1-.41-3,18.89,18.89,0,0,1,.31-3.27c1.41-7.66,2.12-11.94,3.54-19.53a9.88,9.88,0,0,1,2.9-5.81A8.41,8.41,0,0,1,1073.21,176Zm-.14,3.75a3.63,3.63,0,0,0-3.14,1.21,7.05,7.05,0,0,0-1.34,3c-1.48,7.74-2.22,12.17-3.71,20-.06.48-.13.95-.2,1.43a9.73,9.73,0,0,0-.1,1.43,5,5,0,0,0,.9,2.92,4.79,4.79,0,0,0,2.91,1.81,2.84,2.84,0,0,0,3-.64,6.2,6.2,0,0,0,1.44-3.24c1.4-8,2.1-12.68,3.5-20.85.07-.47.13-.93.18-1.4a12.28,12.28,0,0,0,.08-1.32,5.58,5.58,0,0,0-.75-2.95A3.2,3.2,0,0,0,1073.07,179.7Z" transform="translate(-1 71.32)"/><path class="cls-5" d="M1097.26,176a8.94,8.94,0,0,1,3.33.54,5.89,5.89,0,0,1,2.26,1.5,6.13,6.13,0,0,1,1.28,2.38,11.16,11.16,0,0,1,.41,3.09c0,.52,0,1.07-.08,1.64a13.68,13.68,0,0,1-.28,1.76c-1.66.23-2.49.34-4.15.54a12.52,12.52,0,0,0,.36-3,5.45,5.45,0,0,0-.85-3.1,3.28,3.28,0,0,0-2.94-1.29,3.65,3.65,0,0,0-2.64.91,6.43,6.43,0,0,0-1.59,2.31,11.33,11.33,0,0,0-.79,3,21.78,21.78,0,0,0-.21,2.8,6.12,6.12,0,0,0,.21,1.63,5.07,5.07,0,0,0,.71,1.52,8.37,8.37,0,0,0,1.39,1.54,27.05,27.05,0,0,0,2.25,1.77,12.33,12.33,0,0,1,4.28,4.63,13.6,13.6,0,0,1,1.15,5.81c0,6.31-.84,11-2.51,13.8s-4.32,3.55-7.94,2.51a9.6,9.6,0,0,1-5.61-3.84,11.11,11.11,0,0,1-1.82-6.34,14,14,0,0,1,.08-1.43c0-.48.11-1,.18-1.49,1.66.12,2.49.17,4.15.26-.07.49-.13,1-.18,1.43a13.26,13.26,0,0,0-.08,1.43,8.46,8.46,0,0,0,.18,1.78,6.1,6.1,0,0,0,.59,1.59,4,4,0,0,0,1.1,1.3,4.51,4.51,0,0,0,1.72.82,3.46,3.46,0,0,0,2.76-.26,4.84,4.84,0,0,0,1.82-2.17,12.4,12.4,0,0,0,1-3.62,36.7,36.7,0,0,0,.28-4.58,7.2,7.2,0,0,0-.9-3.82,12.15,12.15,0,0,0-2.89-3,24,24,0,0,1-3-2.69,15.07,15.07,0,0,1-1.87-2.54,8.6,8.6,0,0,1-.94-2.54,14.16,14.16,0,0,1-.26-2.74c0-5,.9-8.41,2.69-10.64A8.83,8.83,0,0,1,1097.26,176Z" transform="translate(-1 71.32)"/><path class="cls-5" d="M1135.94,176.25a9.17,9.17,0,0,1,5,1.2,4.92,4.92,0,0,1,2.12,4.14,42.22,42.22,0,0,1-.31,6.53c-.3,3.13-.73,6.91-1.28,11.31s-1,8.36-1.43,11.65a37.3,37.3,0,0,1-1.49,7.38,15.94,15.94,0,0,1-1.74,3.61,12,12,0,0,1-2.28,2.58,10.71,10.71,0,0,1-2.61,1.62,9.47,9.47,0,0,1-2.69.73,50.79,50.79,0,0,1-10.81.29c2.21-17,3.6-34.16,6.56-51Zm-1.79,12.59a7.35,7.35,0,0,0,0-3c-.18-.6-.76-.89-1.71-.88h-.26c-1.43,10.49-2.6,21-3.84,31.54l.25,0a2.23,2.23,0,0,0,1.93-1.26,10.49,10.49,0,0,0,.84-3.52C1132.49,202.42,1133,197.28,1134.15,188.84Z" transform="translate(-1 71.32)"/><path class="cls-5" d="M1144.6,224.2c2.14-16,3.72-32.08,6.56-47.95h17.52c-.56,2.93-.83,4.57-1.39,8.08l-8.76.36c-.45,2.85-.67,4.37-1.13,7.5l7.95-.74c-.58,3.84-.87,5.87-1.44,9.91-3.18.55-4.76.82-7.94,1.35-.49,3.62-.74,5.45-1.23,9,3.69-.85,5.53-1.29,9.22-2.17-.55,4-.83,5.93-1.38,9.58C1155.39,221.31,1151.79,222.45,1144.6,224.2Z" transform="translate(-1 71.32)"/><path class="cls-5" d="M1189.78,201.12a22.87,22.87,0,0,1-1.18,4.95,13.07,13.07,0,0,1-2.25,3.92,13.73,13.73,0,0,1-3.51,3,19.51,19.51,0,0,1-4.94,2,10.11,10.11,0,0,1-3.82.39,5.06,5.06,0,0,1-2.66-1.1,5.27,5.27,0,0,1-1.57-2.43,11.16,11.16,0,0,1-.51-3.5c0-.44,0-.89.05-1.32s.09-.89.15-1.35c3.49-1.12,5.23-1.65,8.71-2.64-.06.43-.12.82-.17,1.15a4.87,4.87,0,0,0-.08.85c0,.64.09,1,.28,1.13a.87.87,0,0,0,.64.09,2.26,2.26,0,0,0,1.46-1.44,8.17,8.17,0,0,0,.59-3.4,2.89,2.89,0,0,0-.49-1.78,3.33,3.33,0,0,0-1.61-1.08,13.89,13.89,0,0,1-3.28-1.66,8.42,8.42,0,0,1-2-2,6.86,6.86,0,0,1-1.07-2.39,11.34,11.34,0,0,1-.31-2.7,21.87,21.87,0,0,1,.74-5.89,11.49,11.49,0,0,1,2.23-4.37,9.4,9.4,0,0,1,3.69-2.65,13.26,13.26,0,0,1,5.12-.9,11.85,11.85,0,0,1,4,.6,7.31,7.31,0,0,1,2.64,1.62,5.74,5.74,0,0,1,1.41,2.32,9.35,9.35,0,0,1,.4,2.76,9.54,9.54,0,0,1,0,1.08,10.75,10.75,0,0,1-.15,1.08c-3.5.41-5.26.65-8.76,1.17a10.31,10.31,0,0,0,.26-1.81c0-.81-.33-1.19-1-1.18a1.48,1.48,0,0,0-1.28,1,5.12,5.12,0,0,0-.46,2.19,2.67,2.67,0,0,0,.56,1.58,5.24,5.24,0,0,0,2.21,1.41,16.23,16.23,0,0,1,3,1.57,7.58,7.58,0,0,1,1.92,1.8,5.91,5.91,0,0,1,1,2.11,10.54,10.54,0,0,1,.29,2.56c0,.49,0,1-.08,1.56S1189.85,200.52,1189.78,201.12Z" transform="translate(-1 71.32)"/><path class="cls-5" d="M1209.3,175.84a12.62,12.62,0,0,1,4.25.43,6.78,6.78,0,0,1,2.87,1.62,5.45,5.45,0,0,1,1.46,2.62,7.5,7.5,0,0,1,0,3.34c0,.17-.07.37-.11.58a2.63,2.63,0,0,1-.15.6c-3.3.74-5,1.06-8.25,1.6a6.73,6.73,0,0,0,.26-2.55.92.92,0,0,0-1-.89,1.31,1.31,0,0,0-1.12.62,4.13,4.13,0,0,0-.52,1.31c-1.25,6.58-1.87,9.81-3.12,16.39a1.68,1.68,0,0,0,.08,1.15.93.93,0,0,0,.94.45,1.62,1.62,0,0,0,1.16-.78,6.66,6.66,0,0,0,.94-2.64c3.53.23,5.29.31,8.82.43a16.8,16.8,0,0,1-1.11,4.08,10.06,10.06,0,0,1-2.2,3.29,9.94,9.94,0,0,1-3.46,2.19,14.15,14.15,0,0,1-4.81.8c-3.32.11-5.75-.45-7.3-2s-2.06-3.82-1.51-6.84c1.25-6.87,1.87-10.31,3.12-16.86a14.13,14.13,0,0,1,1.15-3.66,8.83,8.83,0,0,1,2.08-2.79,9,9,0,0,1,3.12-1.77A16.07,16.07,0,0,1,1209.3,175.84Z" transform="translate(-1 71.32)"/><path class="cls-5" d="M1245.37,169.85c-1.79,9.92-3.29,19.9-4.87,29.85-.58,3.59-1.74,6.25-3.49,8s-4.16,2.63-7.27,2.67a11.94,11.94,0,0,1-4.46-.67,6.64,6.64,0,0,1-4.38-5.29,12.73,12.73,0,0,1,.08-4.29c1.84-10.38,2.77-16.19,4.61-26,3.44-.62,5.16-1,8.61-1.73-1.76,9.42-3.3,18.89-4.92,28.33-.1.66,0,1.06.28,1.22a1.54,1.54,0,0,0,.85.23,1.4,1.4,0,0,0,.82-.4,1.94,1.94,0,0,0,.51-1.21c1.61-9.57,3.15-19.17,4.92-28.72C1240.14,171.11,1241.88,170.69,1245.37,169.85Z" transform="translate(-1 71.32)"/><path class="cls-5" d="M1245.36,209.79c2.24-13.83,4.27-27.69,6.56-41.5,7-1.66,10.51-2.49,17.52-3.66-.55,3.16-.83,5-1.38,8.78-3.5.56-5.26.88-8.76,1.55-.45,2.85-.68,4.34-1.13,7.36,3.18-.51,4.77-.75,7.94-1.19-.57,4.06-.86,6.17-1.43,10.31-3.18.3-4.77.46-7.94.81-.49,3.34-.74,5-1.23,8.22,3.69-.23,5.53-.35,9.22-.54-.55,4-.83,5.93-1.38,9.49C1256.15,209.54,1252.56,209.63,1245.36,209.79Z" transform="translate(-1 71.32)"/><path class="cls-5" d="M1286.5,180.42c1.07-8,1.6-11.89,2.66-17.48,3.37.06,5,.17,8.41.5-2.78,15.19-4.32,30.6-6.56,45.87-3,0-4.55,0-7.58,0-.56-3.62-.83-5.64-1.39-9.75-.53-3.88-.8-5.92-1.33-9.92h-.25c-1.09,8.31-1.63,12.63-2.72,19.65-3.4,0-5.1,0-8.5.05,2.29-15.19,3.9-30.49,6.55-45.63,3.08-.37,4.61-.51,7.69-.66.51,2.56.77,4,1.28,7.21.59,3.77.89,5.86,1.48,10.17Z" transform="translate(-1 71.32)"/><path class="cls-5" d="M1315.24,174.71c-1.84,11.54-3.37,23.13-5.17,34.68-3.51,0-5.26-.07-8.76-.09,1.82-12,3.33-24.07,5.17-36.08-2.11-.32-3.17-.47-5.28-.72.56-3.72.83-5.46,1.39-8.45a186.25,186.25,0,0,1,19.36,3.78c-.55,2.88-.83,4.5-1.38,7.92C1318.44,175.32,1317.37,175.11,1315.24,174.71Z" transform="translate(-1 71.32)"/><path class="cls-5" d="M1341.93,200.2c-.58,3.36-1.76,5.84-3.53,7.51a9.94,9.94,0,0,1-7.33,2.42c-3.18-.07-5.56-1.09-7.15-3.27s-2.09-5.25-1.51-9.18c1.17-7.87,1.75-12,2.92-19.21s4.77-9,10.71-7.58a15,15,0,0,1,4.3,1.69,10.32,10.32,0,0,1,3,2.65,9.1,9.1,0,0,1,1.59,3.55,10.64,10.64,0,0,1,0,4.35C1343.71,189.65,1343.12,193.25,1341.93,200.2Zm-5.48-19.72a1.42,1.42,0,0,0-.23-1.28,1.59,1.59,0,0,0-.79-.46,1.28,1.28,0,0,0-.85.12A1.45,1.45,0,0,0,1334,180c-1.31,7.35-2,11.62-3.28,19.64-.1.71,0,1.17.31,1.39a1.74,1.74,0,0,0,.87.35,1,1,0,0,0,.79-.35,2,2,0,0,0,.49-1.19C1334.48,191.92,1335.14,187.74,1336.45,180.48Z" transform="translate(-1 71.32)"/><path class="cls-5" d="M1368.11,200a18.27,18.27,0,0,1-1.18,4.46,9.18,9.18,0,0,1-5.76,5.37,15.21,15.21,0,0,1-5,.69,10.43,10.43,0,0,1-3.81-.65,7.46,7.46,0,0,1-2.67-1.74,6.89,6.89,0,0,1-1.56-2.61,10,10,0,0,1-.51-3.22c0-.39,0-.77,0-1.14s.09-.75.15-1.14c3.49-.1,5.23-.15,8.71-.29-.07.37-.12.7-.18,1a4.34,4.34,0,0,0-.07.74c0,.58.09.94.28,1.08a1.13,1.13,0,0,0,.64.23,1.66,1.66,0,0,0,1.46-1,5.94,5.94,0,0,0,.59-2.94,2.81,2.81,0,0,0-.49-1.69,4.37,4.37,0,0,0-1.61-1.27,18.27,18.27,0,0,1-3.28-2.14,10.72,10.72,0,0,1-2.05-2.21,7.55,7.55,0,0,1-1.08-2.33,10.08,10.08,0,0,1-.3-2.45,16.38,16.38,0,0,1,.74-5.15,8.78,8.78,0,0,1,2.23-3.68,8.39,8.39,0,0,1,3.69-2,14.43,14.43,0,0,1,5.12-.34,13.62,13.62,0,0,1,4,.91,8,8,0,0,1,2.64,1.75,5.89,5.89,0,0,1,1.4,2.36,9,9,0,0,1,.41,2.74,8.84,8.84,0,0,1,0,1,9.83,9.83,0,0,1-.15,1.05c-3.51.27-5.26.33-8.76.38a8.27,8.27,0,0,0,.25-1.66c0-.76-.32-1.16-1-1.22a1.24,1.24,0,0,0-1.28.78,4.12,4.12,0,0,0-.46,2,2.65,2.65,0,0,0,.56,1.53,6.24,6.24,0,0,0,2.21,1.6,21,21,0,0,1,3,1.82,8.88,8.88,0,0,1,1.93,1.88,6,6,0,0,1,1,2.06,9.42,9.42,0,0,1,.29,2.41c0,.46,0,.94-.08,1.44S1368.18,199.43,1368.11,200Z" transform="translate(-1 71.32)"/><path class="cls-4" d="M1189.3,136.37c-5.59-14.36-10.11-29.11-16.4-43.19a2.56,2.56,0,0,0-3.48-.92,2.61,2.61,0,0,0-.91,3.48c5.84,13.78,10.37,28.08,15.88,42a2.62,2.62,0,0,0,3.13,1.78A2.57,2.57,0,0,0,1189.3,136.37Z" transform="translate(-1 71.32)"/><path class="cls-4" d="M1211.68,91.77c-.3,13.78-1.53,27.52-2.66,41.24a2.5,2.5,0,0,0,2.48,2.48A2.53,2.53,0,0,0,1214,133c1.22-13.73,2.57-27.45,2.72-41.24C1216.74,88.53,1211.75,88.54,1211.68,91.77Z" transform="translate(-1 71.32)"/><path class="cls-4" d="M1253.29,109.16Q1245.88,122,1238.7,135c-1.39,2.53,2.49,4.8,3.88,2.26,4.76-8.68,9.73-17.24,14.1-26.14C1257.77,108.9,1254.57,107,1253.29,109.16Z" transform="translate(-1 71.32)"/><path class="cls-4" d="M1283.11,131.87a86.33,86.33,0,0,0-12.48,5.35c-4.14,2.06-8.33,4-12.38,6.26-2.73,1.5-.29,5.67,2.44,4.17,4-2.2,8.11-4.12,12.19-6.14s7.85-4,11.86-5.77C1286.94,134.75,1285.38,131.16,1283.11,131.87Z" transform="translate(-1 71.32)"/><path class="cls-4" d="M1164,141.1c-4.88-3.94-9.31-8.38-14-12.56a187.27,187.27,0,0,0-15.06-12c-1.91-1.39-3.85,1.53-2.41,3.13,4.24,4.71,9.27,8.52,14,12.72s9,8.45,13.87,12.3a2.6,2.6,0,0,0,3.56,0A2.53,2.53,0,0,0,1164,141.1Z" transform="translate(-1 71.32)"/><path class="cls-4" d="M1143.63,153.83a23.78,23.78,0,0,1-3.44-1.59c-1.29-.69-2.55-1.43-3.84-2.14-2.62-1.45-5.33-2.74-7.95-4.19a2.35,2.35,0,0,0-3,.6,2.3,2.3,0,0,0,.18,3.05,39.07,39.07,0,0,0,4.09,2.93c1.35.8,2.73,1.56,4.1,2.32a57.75,57.75,0,0,0,8.43,4.23,2.72,2.72,0,0,0,3.32-1.88A2.78,2.78,0,0,0,1143.63,153.83Z" transform="translate(-1 71.32)"/><path class="cls-4" d="M1356.47,409.47c-18.76-5.44-38.37-7.35-57.79-8.9-19.22-1.54-38.5-2.4-57.78-2.77-38.85-.76-77.76-.14-116.5,3q-32.24,2.64-64.31,7c-5.81.78-9.55,7.38-8.43,12.84a10.24,10.24,0,0,0,2.92,5.4c-4.88,1.25-7.85,7.23-6.88,11.92,1.24,6,6.58,8.36,12.13,8,70.93-4.91,142-11.85,213.14-7,20.25,1.39,40.42,4.1,60.54,6.64,7.31.93,14-5.68,14.48-12.71a14.3,14.3,0,0,0-.1-2.79l4.36.18C1363.94,430.74,1368.52,413,1356.47,409.47Z" transform="translate(-1 71.32)"/><path class="cls-6" d="M1089.33,421.69c1,2.4,2,4.81,3,7.21.65,1.59,1.26,3.05,1.74,4.54l.09,0c.14-1.53.42-3.18.7-4.83.48-2.62,1-5.23,1.46-7.85l2.3-.3q1.63,3.54,3.26,7.08c.78,1.7,1.4,3.2,1.93,4.66l.09,0a43.51,43.51,0,0,1,.55-4.92c.41-2.56.83-5.11,1.25-7.67l2.71-.32q-1.58,7.67-3.06,15.34l-2.45.3q-1.58-3.37-3.17-6.75a50,50,0,0,1-2-4.68h-.06a47.52,47.52,0,0,1-.73,5q-.75,3.66-1.47,7.32l-2.45.34q-3.24-7.06-6.56-14.1Z" transform="translate(-1 71.32)"/><path class="cls-6" d="M1112.65,418.77q1.41,3.64,2.81,7.29c.61,1.61,1.18,3.09,1.62,4.59h.09c.18-1.54.51-3.18.83-4.82q.82-3.9,1.68-7.8l2.31-.23,3.06,7.17c.73,1.72,1.31,3.23,1.79,4.7h.09a45.4,45.4,0,0,1,.69-4.91c.48-2.54,1-5.09,1.46-7.63l2.72-.24q-1.79,7.62-3.49,15.24l-2.45.24c-1-2.29-2-4.56-3-6.84a50.34,50.34,0,0,1-1.82-4.73H1121a47,47,0,0,1-.87,5c-.56,2.42-1.12,4.85-1.67,7.27l-2.45.27q-3-7.16-6.17-14.27Z" transform="translate(-1 71.32)"/><path class="cls-6" d="M1136,416.51q1.31,3.67,2.6,7.37c.57,1.61,1.09,3.11,1.49,4.62h.09c.23-1.53.6-3.16,1-4.79q.93-3.88,1.89-7.75l2.31-.17q1.44,3.61,2.86,7.25c.68,1.74,1.22,3.27,1.66,4.75h.09a42.63,42.63,0,0,1,.83-4.88c.55-2.53,1.1-5.06,1.67-7.59l2.72-.17q-2,7.58-3.91,15.14l-2.46.17q-1.38-3.46-2.78-6.92c-.64-1.62-1.19-3.06-1.69-4.78h-.06a45.55,45.55,0,0,1-1,5q-.94,3.62-1.87,7.23l-2.46.19q-2.84-7.21-5.76-14.43Z" transform="translate(-1 71.32)"/><path class="cls-6" d="M1156.87,428.34a1.84,1.84,0,1,1,1.93,1.82A1.82,1.82,0,0,1,1156.87,428.34Z" transform="translate(-1 71.32)"/><path class="cls-6" d="M1177.21,421.43c.18,5.5-3.56,8-7.15,8.18-4,.17-7.29-2.61-7.53-7.31-.27-5,2.91-8.05,7.11-8.23C1174,413.88,1177.06,416.89,1177.21,421.43Zm-11.92.64c.16,3.26,2.15,5.62,4.8,5.51s4.45-2.61,4.32-6c-.08-2.51-1.49-5.66-4.74-5.52S1165.15,419.25,1165.29,422.07Z" transform="translate(-1 71.32)"/><path class="cls-6" d="M1190.09,428.66q-.12-6.41-.23-12.81l-6.35.14.33,12.81-2.68.07q-.2-6.4-.38-12.8l-2.12.06c0-.68-.05-1.37-.07-2.06l2.13-.06c0-.16,0-.33,0-.49a6.89,6.89,0,0,1,1.56-5.12,5.25,5.25,0,0,1,3.82-1.47,5,5,0,0,1,2.19.47c-.18.67-.35,1.34-.53,2a4.13,4.13,0,0,0-1.65-.33c-2.17.05-2.73,1.88-2.66,4.21,0,.21,0,.43,0,.64l6.37-.14c0-.23,0-.47,0-.7a6.84,6.84,0,0,1,1.7-5.22,5.39,5.39,0,0,1,3.68-1.44,6.4,6.4,0,0,1,2.37.41c-.11.69-.22,1.39-.32,2.09a4.43,4.43,0,0,0-1.8-.32c-2.34,0-2.94,2.07-2.91,4.34l0,.8,3.66-.05,0,2.06-3.63,0q.09,6.4.19,12.81Z" transform="translate(-1 71.32)"/><path class="cls-6" d="M1209.07,428a10.15,10.15,0,0,1-4.28.86c-4.49,0-7.45-3-7.5-7.55s3.12-7.94,8.08-7.94a9.31,9.31,0,0,1,3.83.78c-.21.7-.43,1.39-.64,2.09a6.41,6.41,0,0,0-3.19-.71c-3.47,0-5.33,2.53-5.31,5.63,0,3.44,2.26,5.54,5.22,5.55a7.79,7.79,0,0,0,3.34-.74Z" transform="translate(-1 71.32)"/><path class="cls-6" d="M1225.74,421.21c-.15,5.5-4,7.8-7.62,7.75-4-.07-7.12-3-7.09-7.73,0-5,3.38-7.88,7.59-7.81C1223,413.49,1225.86,416.67,1225.74,421.21Zm-11.94,0c0,3.26,1.83,5.73,4.48,5.77s4.58-2.34,4.66-5.69c0-2.51-1.16-5.74-4.42-5.79S1213.83,418.34,1213.8,421.16Z" transform="translate(-1 71.32)"/><path class="cls-6" d="M1229.27,418.64c0-1.75.06-3.26,0-4.64l2.42.07V417h.12a4.52,4.52,0,0,1,4.31-3.11,3,3,0,0,1,.78.12c0,.85-.06,1.7-.1,2.55a4.73,4.73,0,0,0-.93-.13c-1.94-.07-3.36,1.33-3.8,3.35a7.27,7.27,0,0,0-.17,1.25q-.12,4-.25,7.92l-2.68-.08Z" transform="translate(-1 71.32)"/><path class="cls-6" d="M1238.78,426.43a7.18,7.18,0,0,0,3.54,1.23c2,.09,2.94-.84,3-2.07s-.68-2-2.67-2.86c-2.65-1.08-3.87-2.6-3.8-4.38.1-2.39,2.15-4.28,5.41-4.13a7.68,7.68,0,0,1,3.69,1.1l-.79,1.93a6,6,0,0,0-3.05-1c-1.63-.07-2.58.81-2.63,1.92s.83,1.81,2.76,2.64c2.56,1.11,3.83,2.47,3.72,4.67-.14,2.61-2.27,4.34-5.8,4.18a8.58,8.58,0,0,1-4.15-1.19C1238.28,427.79,1238.53,427.11,1238.78,426.43Z" transform="translate(-1 71.32)"/><path class="cls-6" d="M1251,427a7.22,7.22,0,0,0,3.52,1.28c2,.12,3-.8,3-2s-.65-2-2.62-2.9c-2.64-1.11-3.84-2.65-3.74-4.43.13-2.39,2.22-4.25,5.48-4.05a7.64,7.64,0,0,1,3.66,1.16l-.81,1.91a6,6,0,0,0-3-1c-1.63-.1-2.59.77-2.65,1.87s.8,1.83,2.71,2.69c2.55,1.14,3.8,2.52,3.65,4.73-.17,2.6-2.32,4.3-5.86,4.09a8.68,8.68,0,0,1-4.13-1.25C1250.49,428.37,1250.75,427.69,1251,427Z" transform="translate(-1 71.32)"/><path class="cls-6" d="M1262.54,428.91a1.82,1.82,0,0,1,2-1.8,1.94,1.94,0,0,1-.31,3.86A1.82,1.82,0,0,1,1262.54,428.91Z" transform="translate(-1 71.32)"/><path class="cls-6" d="M1280.09,431.37a10.22,10.22,0,0,1-4.35.48c-4.47-.39-7.16-3.63-6.82-8.17s3.79-7.63,8.74-7.21a9.23,9.23,0,0,1,3.75,1.11l-.81,2a6.51,6.51,0,0,0-3.12-1c-3.47-.3-5.54,2.06-5.79,5.15-.27,3.43,1.78,5.72,4.73,6a8,8,0,0,0,3.39-.44C1279.91,430,1280,430.68,1280.09,431.37Z" transform="translate(-1 71.32)"/><path class="cls-6" d="M1297.3,426.07c-.62,5.46-4.68,7.42-8.27,7.06-4-.41-6.84-3.63-6.41-8.31.46-5,4.05-7.56,8.24-7.13C1295.21,418.14,1297.81,421.55,1297.3,426.07ZM1285.39,425c-.31,3.24,1.33,5.86,4,6.13s4.78-1.93,5.14-5.26c.27-2.51-.66-5.83-3.91-6.16S1285.66,422.17,1285.39,425Z" transform="translate(-1 71.32)"/><path class="cls-6" d="M1301.11,423.19c.18-1.52.29-2.78.34-4l2.4.28c0,.8-.11,1.6-.16,2.4h.1a5.21,5.21,0,0,1,5.06-2.14,4.48,4.48,0,0,1,3.89,3.5h.06a6.07,6.07,0,0,1,1.93-1.7,5.21,5.21,0,0,1,3.47-.59c2,.27,4.78,2,4,7.07l-1.23,8.67-2.63-.37c.39-2.78.77-5.56,1.16-8.34s-.43-4.68-2.64-5a3.55,3.55,0,0,0-3.55,2,4.38,4.38,0,0,0-.39,1.31c-.4,3-.79,6.08-1.19,9.11l-2.63-.34c.37-2.94.75-5.89,1.12-8.83.3-2.35-.54-4.19-2.62-4.45a3.74,3.74,0,0,0-3.72,2.27,3.64,3.64,0,0,0-.37,1.29c-.35,3-.71,5.94-1.06,8.91l-2.63-.31Q1300.49,428.59,1301.11,423.19Z" transform="translate(-1 71.32)"/><text class="cls-7" transform="translate(1115.1 450.11)">DEL AÑO</text><path class="cls-5" d="M1087.33,330.69c3,1.64,6.14,3,9.21,4.51s6.16,3.05,9.24,4.57c2.6,1.28.73,5.38-1.89,4.1-3.15-1.54-6.28-3.11-9.43-4.63a84.24,84.24,0,0,1-9.39-5C1083.06,333,1085.22,329.53,1087.33,330.69Z" transform="translate(-1 71.32)"/><path class="cls-5" d="M1078.6,352.59a37.65,37.65,0,0,1,5.9-.47c1.91,0,3.82.11,5.73.22,3.76.22,7.52.6,11.3.52a2.3,2.3,0,0,1,2.45,2,2.24,2.24,0,0,1-2,2.44c-4,.12-7.92-.21-11.88-.42-1.91-.1-3.83-.18-5.75-.27a48.37,48.37,0,0,1-5.87-.78A1.64,1.64,0,0,1,1078.6,352.59Z" transform="translate(-1 71.32)"/><path class="cls-5" d="M1094,373c1-.54,2-1.09,3-1.57s1.82-.86,2.71-1.32l1.26-.64.29-.15h0l.55-.31a14.57,14.57,0,0,1,2.83-1.39,2.26,2.26,0,1,1,1.62,4.23,10.82,10.82,0,0,0-1.17.5l-.22.13-.54.32c-.95.56-1.93,1.07-2.91,1.58a46,46,0,0,1-5.4,2.45,2.2,2.2,0,0,1-2.69-1A2.15,2.15,0,0,1,1094,373Z" transform="translate(-1 71.32)"/><path class="cls-5" d="M1326.28,377.7c-3-1.64-6.14-3-9.21-4.51s-6.16-3.05-9.24-4.57c-2.6-1.28-.73-5.37,1.89-4.09,3.15,1.53,6.28,3.1,9.43,4.62a84.89,84.89,0,0,1,9.38,5C1330.55,375.43,1328.39,378.86,1326.28,377.7Z" transform="translate(-1 71.32)"/><path class="cls-5" d="M1335,355.81a40.23,40.23,0,0,1-5.9.47c-1.91,0-3.82-.11-5.73-.22-3.76-.22-7.53-.61-11.3-.53a2.28,2.28,0,0,1-2.45-2,2.25,2.25,0,0,1,2-2.45c4-.12,7.92.22,11.88.42,1.91.1,3.83.18,5.75.27a46.49,46.49,0,0,1,5.87.79A1.64,1.64,0,0,1,1335,355.81Z" transform="translate(-1 71.32)"/><path class="cls-5" d="M1319.6,335.37c-1,.54-2,1.09-3,1.57s-1.82.86-2.71,1.31l-1.26.65-.29.15h0l-.55.31a15.8,15.8,0,0,1-2.83,1.39,2.27,2.27,0,1,1-1.62-4.24,9.89,9.89,0,0,0,1.16-.5l.23-.13.54-.31c1-.56,1.93-1.08,2.91-1.59a43.7,43.7,0,0,1,5.4-2.44,2.2,2.2,0,0,1,2.69,1A2.17,2.17,0,0,1,1319.6,335.37Z" transform="translate(-1 71.32)"/><path class="cls-4" d="M113,63a1.24,1.24,0,0,0-.64-.51c-1.41-.49-3.24,0-5,.76V48.81a1,1,0,0,0-1-1H79a1,1,0,0,0-1,1V77.53l-1.63.79a13.58,13.58,0,0,0-3.08-3.22,14,14,0,0,0-5.64-2.46,3.67,3.67,0,1,0-.39,3.46,10,10,0,0,1,6,3.84A12,12,0,0,1,74,81.09,19.72,19.72,0,0,1,76.21,89c0,.15,0,.28,0,.38a5,5,0,0,0,1.86,3.82,4.38,4.38,0,0,0,2.44.66,9.81,9.81,0,0,0,2.67-.44c.82-.23,5.1-1,9.24-1.78,5.82-1.07,11.84-2.18,13.73-2.71,3.35-.94,5.41-3,5.79-5.88.15-1.1.35-3.83.57-6.72.18-2.43.36-4.94.53-6.63C113.29,67.42,113.9,64.27,113,63ZM64.19,76a2,2,0,1,1,2-2A2,2,0,0,1,64.19,76Zm38.45-11.28c.15.16.29.33.42.5l-2.21,1.08a1.33,1.33,0,0,0-.14-.19,2.2,2.2,0,0,0-1.82-.82,2.17,2.17,0,0,0-1.79.82,3.38,3.38,0,0,0-.65,2.17s0,.11,0,.17L94,69.69a5.46,5.46,0,0,1,.18-3.34,4.74,4.74,0,0,1,1-1.61,5.18,5.18,0,0,1,1.6-1.1,5.79,5.79,0,0,1,4.23,0A5.2,5.2,0,0,1,102.64,64.74ZM82.52,55.2a4.74,4.74,0,0,1,1-1.62,5.06,5.06,0,0,1,1.61-1.1,5.61,5.61,0,0,1,4.21,0A5.06,5.06,0,0,1,91,53.58a4.74,4.74,0,0,1,1,1.62,5.45,5.45,0,0,1,.36,2A5.26,5.26,0,0,1,92,59.1a4.8,4.8,0,0,1-1,1.61,5.06,5.06,0,0,1-1.61,1.1,5.61,5.61,0,0,1-4.21,0,5.06,5.06,0,0,1-1.61-1.1,4.8,4.8,0,0,1-1-1.61,5.26,5.26,0,0,1-.36-1.94A5.45,5.45,0,0,1,82.52,55.2Zm1.64,19.29L98.08,52.68H101L88.44,72.39Zm25.47-5.18c0,.35-.07.73-.1,1.13L91,78.51l.08,1.19,18.12-5.09c0,.47-.07.94-.1,1.41,0,.68-.1,1.36-.15,2l-16,5.33v1l15.72-2.59c0,.31-.06.57-.08.76-.2,1.44-1.31,2.45-3.3,3-1.73.49-8.21,1.68-13.42,2.64S83.2,89.77,82.26,90c-1.77.51-2.21.23-2.22.23s-.22-.19-.35-1.32c0-.1,0-.21,0-.34A25.38,25.38,0,0,0,78,81.38l27.76-13.59c2.89-1.23,3.56-.83,3.63-.78S109.78,67.76,109.63,69.31Z" transform="translate(-1 71.32)"/><path class="cls-4" d="M83.75,96.36a5.52,5.52,0,1,0,5.51,5.52A5.51,5.51,0,0,0,83.75,96.36Zm0,8.55a3,3,0,1,1,3-3A3,3,0,0,1,83.75,104.91Z" transform="translate(-1 71.32)"/><path class="cls-4" d="M105.89,93.36a5.52,5.52,0,1,0,5.52,5.52A5.52,5.52,0,0,0,105.89,93.36Zm0,8.55a3,3,0,1,1,3-3A3,3,0,0,1,105.89,101.91Z" transform="translate(-1 71.32)"/><path class="cls-4" d="M87.28,60.11a2.2,2.2,0,0,0,1.8-.81,3.85,3.85,0,0,0,0-4.31,2.44,2.44,0,0,0-3.63,0,3.95,3.95,0,0,0,0,4.31A2.22,2.22,0,0,0,87.28,60.11Z" transform="translate(-1 71.32)"/><path class="cls-4" d="M135.82,83.89A14.28,14.28,0,0,1,130,85.07c-6.15,0-10.16-4.17-10.16-10.41s4.3-10.87,11-10.87a11.63,11.63,0,0,1,5.14,1.1l-.84,2.82a9.16,9.16,0,0,0-4.3-1c-4.68,0-7.21,3.5-7.21,7.71,0,4.72,3,7.63,7.08,7.63a10.64,10.64,0,0,0,4.55-1Z" transform="translate(-1 71.32)"/><path class="cls-4" d="M142.26,64.21l4.43,12.06c.5,1.34,1,2.94,1.34,4.17h.09c.38-1.23.8-2.78,1.3-4.26l4.05-12h3.92l-5.56,14.54c-2.66,7-4.47,10.54-7,12.77a10.48,10.48,0,0,1-4.55,2.36l-.93-3.08A9.69,9.69,0,0,0,142.6,89a11.75,11.75,0,0,0,3.12-4.13A2.59,2.59,0,0,0,146,84a2.49,2.49,0,0,0-.29-1l-7.5-18.8Z" transform="translate(-1 71.32)"/><path class="cls-4" d="M159.55,57.64h3.66V67.5h.09a7.57,7.57,0,0,1,6.95-3.71c5.1,0,8.64,4.21,8.64,10.37,0,7.29-4.63,10.91-9.18,10.91a7.41,7.41,0,0,1-6.87-3.79h-.09l-.21,3.33h-3.16c.08-1.39.17-3.46.17-5.27Zm3.66,18.79a5,5,0,0,0,.17,1.35A5.7,5.7,0,0,0,169,82.12c3.91,0,6.19-3.16,6.19-7.84,0-4.08-2.11-7.58-6.11-7.58a6,6,0,0,0-5.61,4.55,6.07,6.07,0,0,0-.21,1.56Z" transform="translate(-1 71.32)"/><path class="cls-4" d="M184.68,75.08c.09,5,3.25,7.08,7,7.08a13.22,13.22,0,0,0,5.64-1l.68,2.65a16.45,16.45,0,0,1-6.83,1.31c-6.28,0-10-4.17-10-10.32s3.63-11,9.57-11c6.7,0,8.43,5.82,8.43,9.57a9.23,9.23,0,0,1-.13,1.72Zm10.87-2.65c0-2.32-1-6-5.14-6-3.79,0-5.39,3.41-5.69,6Z" transform="translate(-1 71.32)"/><path class="cls-4" d="M202.37,70.58c0-2.41-.05-4.47-.17-6.37h3.24l.17,4.05h.13a6.17,6.17,0,0,1,5.69-4.47,6.43,6.43,0,0,1,1,.09v3.49a6.06,6.06,0,0,0-1.26-.08c-2.62,0-4.47,1.94-5,4.72a11.65,11.65,0,0,0-.12,1.73V84.61h-3.71Z" transform="translate(-1 71.32)"/><path class="cls-4" d="M241.26,98.42a1.19,1.19,0,0,1,1.2-1.25,1.16,1.16,0,0,1,1.18,1.25,1.19,1.19,0,0,1-1.22,1.26A1.17,1.17,0,0,1,241.26,98.42Z" transform="translate(-1 71.32)"/><path class="cls-4" d="M252.72,99.13a7,7,0,0,1-2.78.55,4.6,4.6,0,0,1-4.82-4.93,4.93,4.93,0,0,1,5.2-5.16,5.54,5.54,0,0,1,2.44.52l-.4,1.34a4.31,4.31,0,0,0-2-.46,3.36,3.36,0,0,0-3.42,3.66,3.32,3.32,0,0,0,3.36,3.62,5.19,5.19,0,0,0,2.16-.46Z" transform="translate(-1 71.32)"/><path class="cls-4" d="M263.41,94.55a4.73,4.73,0,0,1-4.82,5.13,4.61,4.61,0,0,1-4.63-5c0-3.22,2.13-5.12,4.8-5.12S263.41,91.61,263.41,94.55Zm-7.65.1c0,2.11,1.2,3.72,2.91,3.72s2.94-1.59,2.94-3.76c0-1.64-.82-3.7-2.9-3.7S255.76,92.83,255.76,94.65Z" transform="translate(-1 71.32)"/><path class="cls-4" d="M265.63,92.41c0-1,0-1.82-.08-2.62h1.54l.08,1.58h.06a3.35,3.35,0,0,1,3.06-1.78A2.85,2.85,0,0,1,273,91.53h0a3.82,3.82,0,0,1,1.1-1.26,3.25,3.25,0,0,1,2.12-.68c1.3,0,3.2.84,3.2,4.2v5.67h-1.72V94c0-1.88-.7-3-2.1-3a2.31,2.31,0,0,0-2.1,1.58,3,3,0,0,0-.14.88v6h-1.72V93.67c0-1.54-.68-2.64-2-2.64a2.43,2.43,0,0,0-2.18,1.76,2.35,2.35,0,0,0-.14.86v5.81h-1.72Z" transform="translate(-1 71.32)"/><path class="cls-4" d="M281.88,98.42a1.19,1.19,0,0,1,1.2-1.25,1.16,1.16,0,0,1,1.18,1.25A1.19,1.19,0,0,1,283,99.68,1.17,1.17,0,0,1,281.88,98.42Z" transform="translate(-1 71.32)"/><path class="cls-4" d="M293.34,99.13a7,7,0,0,1-2.78.55,4.6,4.6,0,0,1-4.82-4.93,4.93,4.93,0,0,1,5.2-5.16,5.54,5.54,0,0,1,2.44.52l-.4,1.34a4.31,4.31,0,0,0-2-.46,3.36,3.36,0,0,0-3.42,3.66,3.32,3.32,0,0,0,3.36,3.62,5.19,5.19,0,0,0,2.16-.46Z" transform="translate(-1 71.32)"/><path class="cls-4" d="M304,94.55a4.73,4.73,0,0,1-4.82,5.13,4.61,4.61,0,0,1-4.63-5c0-3.22,2.14-5.12,4.79-5.12S304,91.61,304,94.55Zm-7.65.1c0,2.11,1.2,3.72,2.92,3.72s2.93-1.59,2.93-3.76c0-1.64-.82-3.7-2.89-3.7S296.38,92.83,296.38,94.65Z" transform="translate(-1 71.32)"/><path class="cls-4" d="M216.37,55.48h6.1V84h-6.1Z" transform="translate(-1 71.32)"/><path class="cls-4" d="M243.93,77.7c0,2.56.08,4.65.16,6.29H238.8l-.29-2.76h-.12a7,7,0,0,1-6.13,3.2c-4,0-6.9-2.48-6.9-8.54V64.38h6.1V74.93c0,2.85.92,4.57,3.08,4.57a3.23,3.23,0,0,0,3.05-2.12,3.33,3.33,0,0,0,.24-1.33V64.38h6.1Z" transform="translate(-1 71.32)"/><path class="cls-4" d="M246.86,70.64c0-2.45-.08-4.5-.16-6.26H252l.28,2.73h.12a7.05,7.05,0,0,1,6.06-3.17c4,0,7,2.69,7,8.46V84h-6.1V73.12c0-2.52-.88-4.25-3.09-4.25a3.35,3.35,0,0,0-3.12,2.29,4.14,4.14,0,0,0-.21,1.52V84h-6.09Z" transform="translate(-1 71.32)"/><path class="cls-4" d="M273.36,76.13c.2,2.53,2.68,3.73,5.53,3.73a16.23,16.23,0,0,0,5.42-.84l.8,4.13A18.56,18.56,0,0,1,278,84.4c-6.66,0-10.47-3.86-10.47-10,0-5,3.13-10.47,9.91-10.47,6.34,0,8.74,4.93,8.74,9.78a14.48,14.48,0,0,1-.2,2.41ZM280.54,72c0-1.48-.64-4-3.41-4-2.61,0-3.65,2.36-3.81,4Z" transform="translate(-1 71.32)"/><path class="cls-4" d="M289.39,78.66a11.93,11.93,0,0,0,5.25,1.44c1.85,0,2.61-.6,2.61-1.6s-.6-1.53-2.85-2.25c-4.09-1.36-5.65-3.57-5.61-5.85,0-3.69,3.12-6.46,8-6.46a12.91,12.91,0,0,1,5.49,1.16l-1,4.17A10.44,10.44,0,0,0,297,68.19c-1.49,0-2.33.6-2.33,1.56s.77,1.45,3.17,2.25c3.73,1.28,5.26,3.17,5.3,6,0,3.69-2.85,6.38-8.47,6.38A13.85,13.85,0,0,1,288.31,83Z" transform="translate(-1 71.32)"/><path class="cls-4" d="M308.33,53.31a4.33,4.33,0,1,1-4.3,4.32,4.26,4.26,0,0,1,4.3-4.32Zm0,.67a3.66,3.66,0,1,0,3.48,3.67A3.56,3.56,0,0,0,308.31,54Zm-.8,6.16h-.77V55.33a8.26,8.26,0,0,1,1.36-.12,2.48,2.48,0,0,1,1.5.37,1.13,1.13,0,0,1,.44,1,1.19,1.19,0,0,1-.94,1.17v0c.42.08.71.46.81,1.17a4.07,4.07,0,0,0,.3,1.19h-.8a3.45,3.45,0,0,1-.33-1.23.9.9,0,0,0-1-.84h-.53Zm0-2.67h.55c.64,0,1.17-.23,1.17-.82,0-.42-.3-.84-1.17-.84-.25,0-.42,0-.55,0Z" transform="translate(-1 71.32)"/><rect class="cls-1" x="8" y="81.32" width="1547" height="515"/></g></g></g></svg>