<svg xmlns="http://www.w3.org/2000/svg" viewBox="0 0 239.55 111.41"><defs><style>.cls-1{fill:#0099b4;}.cls-2{fill:#005354;}</style></defs><title>Recurso 1</title><g id="Capa_2" data-name="Capa 2"><g id="Capa_1-2" data-name="Capa 1"><path class="cls-1" d="M49.92,28.42a1.92,1.92,0,0,0-.62-1c-1.34-.91-3.08.09-4.71,1.42V2c0-1.08-.45-1.95-1-1.95h-26c-.55,0-1,.87-1,2V55.61L15,57.1a25.41,25.41,0,0,0-2.92-6,12.08,12.08,0,0,0-5.36-4.61C6.22,43.94,5,42.15,3.49,42.15,1.56,42.15,0,45.23,0,49s1.56,6.87,3.49,6.87c1.19,0,2.24-1.17,2.87-3,2.43,1.09,4.33,3.48,5.74,7.19.25.67.49,1.38.71,2.14A66.36,66.36,0,0,1,14.92,77c0,.27,0,.51,0,.71.14,2.41.47,5.39,1.78,7.12A2.8,2.8,0,0,0,19,86a5.38,5.38,0,0,0,2.54-.82c.78-.44,4.85-1.91,8.78-3.33,5.54-2,11.26-4.08,13-5.07,3.19-1.76,5.14-5.67,5.51-11,.14-2,.33-7.15.53-12.55.18-4.54.35-9.22.51-12.39C50.16,36.71,50.74,30.84,49.92,28.42ZM3.49,52.8c-1.06,0-1.92-1.69-1.92-3.78s.86-3.78,1.92-3.78S5.42,46.93,5.42,49,4.56,52.8,3.49,52.8ZM40,31.72c.14.29.27.61.39.93l-2.09,2-.13-.36c-.41-1-1-1.52-1.73-1.52s-1.3.51-1.71,1.52a11,11,0,0,0-.61,4v.32L31.79,41A19,19,0,0,1,32,34.73a11.82,11.82,0,0,1,1-3,6.51,6.51,0,0,1,1.53-2,3,3,0,0,1,2-.76,3,3,0,0,1,2,.76A6.4,6.4,0,0,1,40,31.72ZM20.92,13.9a12.06,12.06,0,0,1,1-3,6.51,6.51,0,0,1,1.53-2,3,3,0,0,1,4,0,6.51,6.51,0,0,1,1.53,2,11.67,11.67,0,0,1,1,3,18.76,18.76,0,0,1,.35,3.65A18.33,18.33,0,0,1,30,21.18a11.69,11.69,0,0,1-1,3,6.51,6.51,0,0,1-1.53,2,3,3,0,0,1-4,0,6.51,6.51,0,0,1-1.53-2,12.09,12.09,0,0,1-1-3,18.33,18.33,0,0,1-.35-3.63A18.76,18.76,0,0,1,20.92,13.9Zm1.56,36L35.7,9.17h2.78L26.54,46Zm24.2-9.67c0,.64-.07,1.35-.1,2.1L29,57.44,29,59.67l17.23-9.5c0,.87-.07,1.75-.1,2.63-.05,1.26-.1,2.54-.15,3.77L30.78,66.52v1.85l14.94-4.84c0,.58,0,1.07-.08,1.43-.18,2.68-1.24,4.58-3.13,5.62-1.65.92-7.81,3.14-12.76,4.93s-8.2,3-9.09,3.48c-1.68,1-2.1.43-2.11.42A7,7,0,0,1,18.23,77q0-.27,0-.63a87.73,87.73,0,0,0-1.62-13.51L43,37.42c2.75-2.3,3.39-1.56,3.45-1.47S46.82,37.36,46.68,40.26Z"/><path class="cls-1" d="M22.09,90.81c-2.9,0-5.25,4.61-5.25,10.3s2.35,10.3,5.25,10.3,5.24-4.61,5.24-10.3S25,90.81,22.09,90.81Zm0,16c-1.6,0-2.89-2.54-2.89-5.67s1.29-5.67,2.89-5.67S25,98,25,101.11,23.68,106.78,22.09,106.78Z"/><path class="cls-1" d="M43.13,85.2c-2.9,0-5.24,4.61-5.24,10.3s2.34,10.3,5.24,10.3,5.24-4.61,5.24-10.3S46,85.2,43.13,85.2Zm0,16c-1.59,0-2.88-2.54-2.88-5.67s1.29-5.67,2.88-5.67S46,92.37,46,95.5,44.72,101.17,43.13,101.17Z"/><path class="cls-1" d="M25.44,23.06c.72,0,1.29-.5,1.71-1.52a10.55,10.55,0,0,0,.63-4,10.72,10.72,0,0,0-.63-4c-.42-1-1-1.52-1.71-1.52s-1.33.5-1.74,1.52a11,11,0,0,0-.61,4,10.79,10.79,0,0,0,.61,4C24.11,22.56,24.69,23.06,25.44,23.06Z"/><path class="cls-2" d="M71.57,67.5A8.48,8.48,0,0,1,66,69.71c-5.85,0-9.65-7.8-9.65-19.45s4.08-20.32,10.41-20.32a7,7,0,0,1,4.89,2l-.81,5.28a5.57,5.57,0,0,0-4.08-1.82c-4.45,0-6.85,6.54-6.85,14.41,0,8.82,2.89,14.25,6.73,14.25A6.32,6.32,0,0,0,71,62.3Z"/><path class="cls-2" d="M77.69,30.73,81.9,53.25c.48,2.52,1,5.51,1.28,7.79h.08c.36-2.28.76-5.19,1.24-7.95l3.85-22.36h3.72L86.78,57.89C84.26,71,82.54,77.58,80.14,81.75c-1.77,2.91-3.45,4.1-4.33,4.41l-.88-5.75A10.17,10.17,0,0,0,78,77a26.12,26.12,0,0,0,3-7.72,8.77,8.77,0,0,0,.28-1.65A8.46,8.46,0,0,0,81,65.85L73.85,30.73Z"/><path class="cls-2" d="M94.12,18.45h3.49V36.87h.08c1.24-4.25,3.48-6.93,6.61-6.93,4.84,0,8.21,7.88,8.21,19.37,0,13.62-4.41,20.4-8.73,20.4-2.81,0-5-2.13-6.53-7.09h-.08L97,68.84H94c.08-2.6.16-6.46.16-9.84Zm3.49,35.11a17,17,0,0,0,.16,2.52c.64,4.81,2.72,8.11,5.28,8.11,3.73,0,5.89-5.9,5.89-14.64,0-7.64-2-14.17-5.81-14.17-2.36,0-4.6,3.3-5.32,8.5a20.89,20.89,0,0,0-.2,2.91Z"/><path class="cls-2" d="M118,51c.08,9.37,3.08,13.23,6.65,13.23a7.6,7.6,0,0,0,5.36-2l.64,5a9.61,9.61,0,0,1-6.48,2.45c-6,0-9.54-7.8-9.54-19.3s3.45-20.47,9.1-20.47c6.36,0,8,10.87,8,17.88,0,1.41,0,2.44-.12,3.22Zm10.33-5c0-4.33-.92-11.17-4.88-11.17-3.61,0-5.13,6.37-5.41,11.17Z"/><path class="cls-2" d="M134.82,42.62c0-4.49,0-8.35-.16-11.89h3.08l.16,7.56H138c.88-5.12,3-8.35,5.41-8.35a3.71,3.71,0,0,1,1,.16v6.54a2.82,2.82,0,0,0-1.2-.16c-2.49,0-4.25,3.62-4.73,8.82-.08.94-.12,2.12-.12,3.22V68.84h-3.52Z"/><path class="cls-2" d="M171.78,94.66c0-1.35.48-2.36,1.14-2.36s1.12,1,1.12,2.36S173.59,97,172.88,97,171.78,96,171.78,94.66Z"/><path class="cls-2" d="M182.67,96A4,4,0,0,1,180,97c-2.78,0-4.58-3.7-4.58-9.23s1.94-9.64,4.94-9.64a3.31,3.31,0,0,1,2.32,1l-.38,2.5a2.66,2.66,0,0,0-1.94-.86c-2.11,0-3.25,3.1-3.25,6.83,0,4.19,1.37,6.77,3.19,6.77a3.05,3.05,0,0,0,2.06-.86Z"/><path class="cls-2" d="M192.84,87.41c0,6.69-2.38,9.6-4.59,9.6-2.47,0-4.4-3.59-4.4-9.3,0-6,2-9.57,4.56-9.57S192.84,81.92,192.84,87.41Zm-7.28.18c0,4,1.14,7,2.77,7s2.79-3,2.79-7c0-3.06-.77-6.91-2.75-6.91S185.56,84.2,185.56,87.59Z"/><path class="cls-2" d="M194.94,83.41c0-1.9,0-3.4-.07-4.89h1.46l.07,3h.06c.51-1.72,1.37-3.33,2.91-3.33,1.23,0,2.18,1.5,2.58,3.63h0a7.84,7.84,0,0,1,1-2.36,2.34,2.34,0,0,1,2-1.27c1.24,0,3,1.57,3,7.85V96.6h-1.63V86.4c0-3.51-.67-5.57-2-5.57-1,0-1.69,1.39-2,3a10.26,10.26,0,0,0-.14,1.65V96.6H200.7V85.77c0-2.88-.65-4.94-1.92-4.94-1,0-1.81,1.65-2.07,3.29a8,8,0,0,0-.13,1.61V96.6h-1.64Z"/><path class="cls-2" d="M210.39,94.66c0-1.35.47-2.36,1.14-2.36s1.12,1,1.12,2.36S212.19,97,211.49,97,210.39,96,210.39,94.66Z"/><path class="cls-2" d="M221.27,96A4,4,0,0,1,218.63,97c-2.77,0-4.58-3.7-4.58-9.23S216,78.14,219,78.14a3.3,3.3,0,0,1,2.32,1l-.38,2.5a2.65,2.65,0,0,0-1.94-.86c-2.11,0-3.25,3.1-3.25,6.83,0,4.19,1.37,6.77,3.2,6.77A3,3,0,0,0,221,93.5Z"/><path class="cls-2" d="M231.44,87.41c0,6.69-2.38,9.6-4.58,9.6-2.47,0-4.41-3.59-4.41-9.3,0-6,2-9.57,4.56-9.57S231.44,81.92,231.44,87.41Zm-7.28.18c0,4,1.14,7,2.78,7s2.79-3,2.79-7c0-3.06-.78-6.91-2.76-6.91S224.16,84.2,224.16,87.59Z"/><path class="cls-1" d="M148.12,14.41h5.8V67.69h-5.8Z"/><path class="cls-1" d="M174.32,55.93c0,4.79.07,8.69.15,11.76h-5l-.27-5.17h-.11c-.73,2.25-2.48,6-5.84,6-3.81,0-6.55-4.64-6.55-16V31h5.79V50.75c0,5.32.88,8.54,2.94,8.54,1.6,0,2.55-2.17,2.89-4a11.07,11.07,0,0,0,.23-2.48V31h5.8Z"/><path class="cls-1" d="M177.1,42.73c0-4.57-.08-8.39-.15-11.69h5l.27,5.1h.11c.76-2.4,2.63-5.92,5.76-5.92,3.81,0,6.67,5,6.67,15.81V67.69H189V47.38c0-4.72-.84-7.94-2.93-7.94-1.6,0-2.56,2.17-3,4.27a15,15,0,0,0-.2,2.85V67.69H177.1Z"/><path class="cls-1" d="M202.29,53c.19,4.72,2.55,7,5.26,7a8.75,8.75,0,0,0,5.14-1.57l.76,7.72a10.38,10.38,0,0,1-6.74,2.32c-6.33,0-10-7.19-10-18.66,0-9.29,3-19.56,9.41-19.56,6,0,8.31,9.22,8.31,18.28,0,2-.11,3.68-.19,4.5Zm6.82-7.79c0-2.78-.61-7.42-3.24-7.42s-3.47,4.42-3.62,7.42Z"/><path class="cls-1" d="M217.52,57.72a7.77,7.77,0,0,0,5,2.7c1.76,0,2.48-1.13,2.48-3s-.57-2.84-2.7-4.19c-3.89-2.55-5.38-6.67-5.34-10.94,0-6.9,3-12.07,7.59-12.07a7.71,7.71,0,0,1,5.22,2.17l-1,7.8a6.59,6.59,0,0,0-4.05-2c-1.41,0-2.21,1.12-2.21,2.92s.73,2.7,3,4.2c3.54,2.4,5,5.92,5,11.24,0,6.9-2.71,11.92-8.05,11.92a8.37,8.37,0,0,1-6-2.62Z"/><path class="cls-2" d="M235.52,10.36c2.25,0,4,3.59,4,8.07s-1.78,8.1-4,8.1-4.07-3.55-4.07-8.1,1.82-8.07,4.07-8.07Zm0,1.26c-1.81,0-3.29,3-3.29,6.81s1.48,6.85,3.3,6.85,3.29-3,3.29-6.82-1.46-6.84-3.29-6.84Zm-.77,11.51H234v-9a4.23,4.23,0,0,1,1.3-.22,1.65,1.65,0,0,1,1.42.68,3.32,3.32,0,0,1,.42,1.86,2.38,2.38,0,0,1-.9,2.19v.08c.4.14.68.85.77,2.18a14.1,14.1,0,0,0,.29,2.23h-.77a13.9,13.9,0,0,1-.31-2.3c-.1-1.15-.4-1.58-1-1.58h-.51Zm0-5h.53c.6,0,1.11-.43,1.11-1.54,0-.79-.29-1.58-1.11-1.58a2.12,2.12,0,0,0-.53.07Z"/></g></g></svg>