<svg xmlns="http://www.w3.org/2000/svg" viewBox="0 0 252.06 59.63"><defs><style>.cls-1{fill:#fff;}</style></defs><title>Recurso 3</title><g id="Capa_2" data-name="Capa 2"><g id="Capa_1-2" data-name="Capa 1"><path class="cls-1" d="M52.52,15.21a1.29,1.29,0,0,0-.64-.51c-1.41-.49-3.24.05-5,.76V1a1,1,0,0,0-1.05-1H18.48a1,1,0,0,0-1.05,1V29.76l-1.62.8a13.39,13.39,0,0,0-3.08-3.22,14.2,14.2,0,0,0-5.64-2.47,3.67,3.67,0,1,0-.39,3.46,10,10,0,0,1,6,3.85,11.76,11.76,0,0,1,.74,1.14,19.61,19.61,0,0,1,2.23,7.87c0,.14,0,.27,0,.38a5,5,0,0,0,1.87,3.81,4.29,4.29,0,0,0,2.44.67,9.87,9.87,0,0,0,2.67-.44c.82-.24,5.1-1,9.23-1.79,5.83-1.07,11.85-2.18,13.74-2.71,3.35-.94,5.4-3,5.79-5.88.15-1.1.35-3.83.57-6.72.18-2.42.36-4.93.53-6.63C52.78,19.65,53.38,16.5,52.52,15.21ZM3.68,28.26a2,2,0,1,1,2-2A2,2,0,0,1,3.68,28.26ZM42.13,17a4.83,4.83,0,0,1,.41.49l-2.2,1.08-.14-.19a2.2,2.2,0,0,0-1.82-.81,2.16,2.16,0,0,0-1.79.81,3.4,3.4,0,0,0-.65,2.17,1,1,0,0,0,0,.17l-2.5,1.22a5.3,5.3,0,0,1-.19-1.39,5.07,5.07,0,0,1,.37-1.94,4.62,4.62,0,0,1,1-1.61,5.06,5.06,0,0,1,1.61-1.1,5.26,5.26,0,0,1,2.11-.41,5.34,5.34,0,0,1,2.12.41A5.15,5.15,0,0,1,42.13,17ZM22,7.44a4.88,4.88,0,0,1,1-1.63,5.11,5.11,0,0,1,1.61-1.1,5.25,5.25,0,0,1,5.82,1.1,4.88,4.88,0,0,1,1,1.63,5.46,5.46,0,0,1,0,3.9,4.9,4.9,0,0,1-1,1.61A5,5,0,0,1,28.87,14a5.61,5.61,0,0,1-4.21,0A4.83,4.83,0,0,1,22,11.34a5.46,5.46,0,0,1,0-3.9Zm1.64,19.28L37.57,4.91h2.92L27.93,24.62Zm25.47-5.17c0,.34-.07.72-.11,1.12L30.48,30.74l.07,1.19,18.13-5.08c0,.47-.07.94-.1,1.41,0,.67-.1,1.36-.15,2l-16,5.32v1L48.12,34c0,.31-.06.57-.09.76-.19,1.44-1.3,2.46-3.29,3-1.73.48-8.21,1.68-13.42,2.63s-8.63,1.6-9.57,1.87c-1.77.5-2.21.22-2.22.22s-.22-.18-.35-1.32c0-.09,0-.2,0-.34a25.8,25.8,0,0,0-1.7-7.23L45.21,20c2.89-1.23,3.56-.84,3.63-.79S49.27,20,49.12,21.55Z"/><path class="cls-1" d="M23.24,48.6a5.52,5.52,0,1,0,5.51,5.51A5.52,5.52,0,0,0,23.24,48.6Zm0,8.55a3,3,0,1,1,3-3A3,3,0,0,1,23.24,57.15Z"/><path class="cls-1" d="M45.38,45.6a5.52,5.52,0,1,0,5.51,5.51A5.51,5.51,0,0,0,45.38,45.6Zm0,8.54a3,3,0,1,1,3-3A3,3,0,0,1,45.38,54.14Z"/><path class="cls-1" d="M26.76,12.34a2.2,2.2,0,0,0,1.81-.81,3.28,3.28,0,0,0,.66-2.14,3.32,3.32,0,0,0-.66-2.16,2.44,2.44,0,0,0-3.63,0,3.37,3.37,0,0,0-.64,2.16,3.33,3.33,0,0,0,.64,2.14A2.2,2.2,0,0,0,26.76,12.34Z"/><path class="cls-1" d="M75.3,36.13a14.4,14.4,0,0,1-5.85,1.18c-6.16,0-10.16-4.18-10.16-10.41S63.59,16,70.25,16a11.68,11.68,0,0,1,5.14,1.09l-.85,2.82a9.08,9.08,0,0,0-4.29-1C65.57,19,63,22.47,63,26.69c0,4.72,3,7.62,7.08,7.62a10.49,10.49,0,0,0,4.55-1Z"/><path class="cls-1" d="M81.75,16.45,86.17,28.5c.51,1.35,1,2.95,1.35,4.17h.09c.38-1.22.8-2.78,1.3-4.26l4-12h3.92L91.31,31c-2.65,7-4.46,10.54-7,12.77a10.48,10.48,0,0,1-4.55,2.36L78.84,43a9.92,9.92,0,0,0,3.25-1.82,11.63,11.63,0,0,0,3.11-4.13,2.59,2.59,0,0,0,.3-.88,2.42,2.42,0,0,0-.3-1L77.7,16.45Z"/><path class="cls-1" d="M99,9.87h3.66v9.86h.09a7.56,7.56,0,0,1,6.95-3.7c5.1,0,8.64,4.21,8.64,10.36,0,7.29-4.64,10.92-9.19,10.92a7.41,7.41,0,0,1-6.87-3.8h-.08L102,36.84H98.87c.08-1.39.17-3.45.17-5.27Zm3.66,18.8a4.67,4.67,0,0,0,.17,1.35,5.69,5.69,0,0,0,5.56,4.33c3.92,0,6.2-3.15,6.2-7.83,0-4.09-2.11-7.59-6.11-7.59a6,6,0,0,0-5.61,4.55A6.13,6.13,0,0,0,102.7,25Z"/><path class="cls-1" d="M124.17,27.32c.08,5,3.25,7.08,7,7.08a13.24,13.24,0,0,0,5.64-1.06l.68,2.66a16.65,16.65,0,0,1-6.83,1.31c-6.28,0-10-4.18-10-10.33S124.25,16,130.2,16c6.7,0,8.42,5.81,8.42,9.56a9.52,9.52,0,0,1-.12,1.73ZM135,24.66c0-2.31-1-6-5.14-6-3.79,0-5.39,3.41-5.69,6Z"/><path class="cls-1" d="M141.85,22.81c0-2.4,0-4.47-.16-6.36h3.24l.17,4h.13A6.15,6.15,0,0,1,150.92,16a8.1,8.1,0,0,1,1,.08v3.5a5.45,5.45,0,0,0-1.27-.09c-2.61,0-4.46,1.94-5,4.72a11.7,11.7,0,0,0-.13,1.73V36.84h-3.71Z"/><path class="cls-1" d="M180.75,50.66A1.19,1.19,0,0,1,182,49.4a1.17,1.17,0,0,1,1.18,1.26,1.19,1.19,0,0,1-1.22,1.26A1.17,1.17,0,0,1,180.75,50.66Z"/><path class="cls-1" d="M192.21,51.36a6.8,6.8,0,0,1-2.78.56A4.6,4.6,0,0,1,184.61,47a4.93,4.93,0,0,1,5.2-5.16,5.46,5.46,0,0,1,2.43.52l-.39,1.34a4.31,4.31,0,0,0-2-.46,3.36,3.36,0,0,0-3.42,3.66,3.32,3.32,0,0,0,3.36,3.62,5,5,0,0,0,2.16-.46Z"/><path class="cls-1" d="M202.9,46.78a4.74,4.74,0,0,1-4.82,5.14c-2.6,0-4.64-1.92-4.64-5,0-3.22,2.14-5.12,4.8-5.12S202.9,43.84,202.9,46.78Zm-7.66.1c0,2.12,1.2,3.72,2.92,3.72s2.94-1.58,2.94-3.76c0-1.64-.82-3.7-2.9-3.7S195.24,45.06,195.24,46.88Z"/><path class="cls-1" d="M205.12,44.64c0-1,0-1.82-.08-2.62h1.54l.08,1.58h.06a3.35,3.35,0,0,1,3.06-1.78,2.85,2.85,0,0,1,2.72,1.94h0a3.71,3.71,0,0,1,1.1-1.26,3.22,3.22,0,0,1,2.11-.68c1.3,0,3.2.84,3.2,4.2V51.7h-1.72V46.24c0-1.88-.7-3-2.1-3A2.3,2.3,0,0,0,213,44.84a2.71,2.71,0,0,0-.14.88v6h-1.72V45.9c0-1.54-.68-2.64-2-2.64A2.43,2.43,0,0,0,207,45a2.35,2.35,0,0,0-.14.86V51.7h-1.72Z"/><path class="cls-1" d="M221.37,50.66a1.19,1.19,0,0,1,1.2-1.26,1.17,1.17,0,0,1,1.18,1.26,1.19,1.19,0,0,1-1.22,1.26A1.17,1.17,0,0,1,221.37,50.66Z"/><path class="cls-1" d="M232.83,51.36a6.8,6.8,0,0,1-2.78.56A4.6,4.6,0,0,1,225.23,47a4.93,4.93,0,0,1,5.2-5.16,5.46,5.46,0,0,1,2.43.52l-.4,1.34a4.23,4.23,0,0,0-2-.46A3.36,3.36,0,0,0,227,46.88a3.32,3.32,0,0,0,3.36,3.62,5,5,0,0,0,2.16-.46Z"/><path class="cls-1" d="M243.52,46.78a4.74,4.74,0,0,1-4.82,5.14c-2.6,0-4.64-1.92-4.64-5,0-3.22,2.14-5.12,4.8-5.12S243.52,43.84,243.52,46.78Zm-7.66.1c0,2.12,1.2,3.72,2.92,3.72s2.94-1.58,2.94-3.76c0-1.64-.82-3.7-2.9-3.7S235.86,45.06,235.86,46.88Z"/><path class="cls-1" d="M155.86,7.71H162V36.23h-6.09Z"/><path class="cls-1" d="M183.42,29.93c0,2.57.08,4.65.16,6.3h-5.3L178,33.46h-.12a7,7,0,0,1-6.14,3.21c-4,0-6.89-2.49-6.89-8.55V16.61h6.09V27.16c0,2.85.93,4.57,3.09,4.57a3.37,3.37,0,0,0,3.29-3.45V16.61h6.1Z"/><path class="cls-1" d="M186.34,22.87c0-2.45-.08-4.49-.16-6.26h5.3l.28,2.73h.12a7.05,7.05,0,0,1,6.06-3.17c4,0,7,2.69,7,8.47V36.23h-6.1V25.36c0-2.53-.88-4.25-3.09-4.25a3.35,3.35,0,0,0-3.13,2.28,4.44,4.44,0,0,0-.2,1.53V36.23h-6.1Z"/><path class="cls-1" d="M212.85,28.37c.2,2.52,2.68,3.73,5.53,3.73a16.23,16.23,0,0,0,5.42-.85l.8,4.13a18.41,18.41,0,0,1-7.1,1.25c-6.66,0-10.47-3.85-10.47-10,0-5,3.13-10.47,9.91-10.47,6.33,0,8.74,4.94,8.74,9.79a14.59,14.59,0,0,1-.2,2.41ZM220,24.2c0-1.49-.64-4-3.4-4s-3.65,2.37-3.82,4Z"/><path class="cls-1" d="M228.88,30.89a11.93,11.93,0,0,0,5.25,1.45c1.84,0,2.61-.61,2.61-1.61s-.6-1.52-2.85-2.24c-4.09-1.37-5.66-3.57-5.62-5.86,0-3.69,3.13-6.46,8-6.46a12.74,12.74,0,0,1,5.49,1.17l-1,4.17a10.48,10.48,0,0,0-4.25-1.09c-1.49,0-2.33.6-2.33,1.57s.76,1.44,3.17,2.24c3.73,1.29,5.25,3.17,5.29,6,0,3.69-2.84,6.38-8.46,6.38a13.77,13.77,0,0,1-6.34-1.41Z"/><path class="cls-1" d="M247.82,5.55a4.25,4.25,0,0,1,4.24,4.31,4.27,4.27,0,1,1-8.54,0,4.28,4.28,0,0,1,4.28-4.31Zm0,.67a3.55,3.55,0,0,0-3.45,3.64,3.47,3.47,0,1,0,6.92,0,3.54,3.54,0,0,0-3.45-3.66ZM247,12.38h-.76V7.56a8.16,8.16,0,0,1,1.36-.12,2.55,2.55,0,0,1,1.5.37,1.18,1.18,0,0,1,.44,1,1.21,1.21,0,0,1-.94,1.17v0c.42.07.71.46.8,1.17a4.15,4.15,0,0,0,.31,1.19h-.81a3.66,3.66,0,0,1-.32-1.23.9.9,0,0,0-1-.85H247Zm0-2.67h.56c.63,0,1.17-.23,1.17-.83,0-.42-.31-.84-1.17-.84a3.71,3.71,0,0,0-.56,0Z"/></g></g></svg>